{
	"asset":{
		"version":"2.0",
		"generator":"Created using the official Cinema 4D glTF Exporter 1.000x290161"
	},
	"scenes":[{
		"nodes":[0]
	}],
	"nodes":[{
		"name":"Fracture",
		"children":[1]
	},
	{
		"name":"Null",
		"translation":[0.0,
		80.66231536865235,
		0.0],
		"rotation":[0.0,
		0.0,
		0.0,
		-1.0],
		"scale":[1.0,
		1.0,
		1.0],
		"children":[2,
		3]
	},
	{
		"name":"lid",
		"translation":[0.0,
		-0.5896937251091003,
		0.0],
		"rotation":[0.0,
		0.0,
		0.0,
		-1.0],
		"scale":[1.0,
		1.0,
		1.0],
		"mesh":0
	},
	{
		"name":"Lathe - cup",
		"translation":[0.0,
		0.5896937251091003,
		0.0],
		"rotation":[0.0,
		0.0,
		0.0,
		-1.0],
		"scale":[1.0,
		1.0,
		1.0],
		"mesh":1
	}],
	"meshes":[{
		"primitives":[{
			"attributes":{
				"POSITION":1,
				"NORMAL":2,
				"TEXCOORD_0":3
			},
			"indices":0,
			"material":0
		}]
	},
	{
		"primitives":[{
			"attributes":{
				"POSITION":5,
				"NORMAL":6,
				"TEXCOORD_0":7
			},
			"indices":4,
			"material":1
		}]
	}],
	"accessors":[{
		"bufferView":0,
		"type":"SCALAR",
		"componentType":5123,
		"count":49440,
		"byteOffset":0,
		"min":[0],
		"max":[9753]
	},
	{
		"bufferView":1,
		"type":"VEC3",
		"componentType":5126,
		"count":9754,
		"byteOffset":0,
		"min":[-28.370254516601564,
		-1.600000023841858,
		-28.370254516601564],
		"max":[28.370254516601564,
		9.040013313293457,
		28.370254516601564]
	},
	{
		"bufferView":1,
		"type":"VEC3",
		"componentType":5126,
		"count":9754,
		"byteOffset":12,
		"min":[-1.0,
		-0.12293408066034317,
		-1.0],
		"max":[1.0,
		0.9999964237213135,
		1.0]
	},
	{
		"bufferView":1,
		"type":"VEC2",
		"componentType":5126,
		"count":9754,
		"byteOffset":24,
		"min":[0.007632887922227383,
		0.007576707750558853],
		"max":[0.9923670887947083,
		0.9924232959747315]
	},
	{
		"bufferView":2,
		"type":"SCALAR",
		"componentType":5123,
		"count":6336,
		"byteOffset":0,
		"min":[0],
		"max":[1199]
	},
	{
		"bufferView":3,
		"type":"VEC3",
		"componentType":5126,
		"count":1200,
		"byteOffset":0,
		"min":[-27.824853897094728,
		-80.47391510009766,
		-27.824853897094728],
		"max":[27.824853897094728,
		-1.402488350868225,
		27.824853897094728]
	},
	{
		"bufferView":3,
		"type":"VEC3",
		"componentType":5126,
		"count":1200,
		"byteOffset":12,
		"min":[-0.9981910586357117,
		-1.0,
		-0.9981910586357117],
		"max":[0.9981910586357117,
		0.9464254379272461,
		0.9981910586357117]
	},
	{
		"bufferView":3,
		"type":"VEC2",
		"componentType":5126,
		"count":1200,
		"byteOffset":24,
		"min":[0.609995424747467,
		0.0010983911342918873],
		"max":[1.6099953651428223,
		1.001098394393921]
	}],
	"bufferViews":[{
		"buffer":0,
		"byteOffset":0,
		"byteLength":98880,
		"target":34963
	},
	{
		"buffer":0,
		"byteOffset":98880,
		"byteLength":312128,
		"target":34962,
		"byteStride":32
	},
	{
		"buffer":1,
		"byteOffset":0,
		"byteLength":12672,
		"target":34963
	},
	{
		"buffer":1,
		"byteOffset":12672,
		"byteLength":38400,
		"target":34962,
		"byteStride":32
	}],
	"buffers":[{
		"uri":"data:application/octet-stream;base64,",
		"byteLength":411008
	},
	{
		"uri":"data:application/octet-stream;base64,",
		"byteLength":51072
	}],
	"images":[{
		"uri":"data:image/jpeg;base64,"
	},
	{
		"uri":"data:image/jpeg;base64,"
	}],
	"samplers":[{
		"magFilter":9729,
		"minFilter":9729,
		"wrapS":10497,
		"wrapT":10497
	},
	{
		"magFilter":9729,
		"minFilter":9729,
		"wrapS":10497,
		"wrapT":10497
	}],
	"textures":[{
		"sampler":0,
		"source":0
	},
	{
		"sampler":1,
		"source":1
	}],
	"materials":[{
		"pbrMetallicRoughness":{
			"baseColorTexture":{
				"index":0
			},
			"baseColorFactor":[1.0,
			1.0,
			1.0,
			1.0],
			"metallicFactor":0.0,
			"roughnessFactor":0.45
		},
		"emissiveFactor":[0.0,
		0.0,
		0.0],
		"alphaMode":"OPAQUE",
		"doubleSided":false,
		"name":"Mat.1"
	},
	{
		"pbrMetallicRoughness":{
			"baseColorTexture":{
				"index":1
			},
			"baseColorFactor":[1.0,
			1.0,
			1.0,
			1.0],
			"metallicFactor":0.0,
			"roughnessFactor":0.5
		},
		"emissiveFactor":[0.0,
		0.0,
		0.0],
		"alphaMode":"OPAQUE",
		"doubleSided":false,
		"name":"Mat"
	}]
}